PathFileType	4	(X/Y/Z)	Patient4_TMGait_0pt4_02_right_26.trc.trc
DataRate	CameraRate	NumFrames	NumMarkers	Units	OrigDataRate	OrigDataStartFrame	OrigNumFrames
76.923076923077	76.923076923077	4	33	mm	76.923076923077	36	       141
Frame#	Time	Sacral			L.Shoulder			Chest			R.Shoulder			Neck			R.ASIS			L.ASIS			R.Thigh.Superior			R.Thigh.Lateral			R.Thigh.Inferior			R.Patella			L.Thigh.Superior			L.Thigh.Lateral			L.Thigh.Inferior			L.Patella			L.Shank.Superior			L.Shank.Lateral			L.Shank.Inferior			R.Shank.Superior			R.Shank.Lateral			R.Shank.Inferior			R.Heel			R.Midfoot.Superior			R.Midfoot.Lateral			R.Toe			L.Heel			L.Midfoot.Lateral			L.Midfoot.Superior			L.Toe			L.Elbow			L.Wrist			R.Elbow			R.Wrist			
		X1	Y1	Z1	X2	Y2	Z2	X3	Y3	Z3	X4	Y4	Z4	X5	Y5	Z5	X6	Y6	Z6	X7	Y7	Z7	X8	Y8	Z8	X9	Y9	Z9	X10	Y10	Z10	X11	Y11	Z11	X12	Y12	Z12	X13	Y13	Z13	X14	Y14	Z14	X15	Y15	Z15	X16	Y16	Z16	X17	Y17	Z17	X18	Y18	Z18	X19	Y19	Z19	X20	Y20	Z20	X21	Y21	Z21	X22	Y22	Z22	X23	Y23	Z23	X24	Y24	Z24	X25	Y25	Z25	X26	Y26	Z26	X27	Y27	Z27	X28	Y28	Z28	X29	Y29	Z29	X30	Y30	Z30	X31	Y31	Z31	X32	Y32	Z32	X33	Y33	Z33	

36	34.785000000000	880.920674104035	993.352976239929	472.353937011823	1052.760508631810	1431.763384435795	299.147023887870	1147.259228830562	1366.812241276698	466.597617644966	1048.229373394976	1435.139135382019	634.638151438161	1022.941449302058	1491.813742019016	454.947437985062	1110.609990521782	943.877184009058	598.669848894232	1104.057000249136	961.246689530953	322.201455781123	1170.974076062088	749.585497252150	568.146687404031	1102.235291398664	633.898146822331	631.506974136728	1184.368025006103	588.496265324138	551.380431238178	1193.382150817804	500.473552977395	559.727696729490	1129.505329533716	734.304920202451	343.811617502254	1029.477729908262	627.173377629948	276.427401936972	1107.936866215213	537.296428043691	332.302887673472	1097.370512199902	456.789378798274	329.477985128178	1037.462037957223	397.337512166836	322.394669019092	905.824861613542	332.812580502668	273.200912413124	910.770677001001	203.964127064598	329.919015769385	1169.409006319945	409.703883427816	569.474638516625	1102.839181355774	304.159090831768	633.875093148399	1150.200484669595	210.082889186855	573.416393666597	1024.443115227714	42.208347156991	546.811983300636	1193.830744505533	99.181522886322	583.385792746378	1107.497687693188	37.409444295359	622.033722827018	1314.991795563867	48.952551558308	611.167778279860	736.956944647354	96.410101004335	367.980684552203	804.681014683043	67.826183507145	288.720889930842	901.610263155815	106.456901337420	310.848641908562	1008.637626106719	35.926249367647	284.607522753675	1084.862503135033	1090.996047774874	159.381537126654	1326.801271487934	1001.491153462206	181.214380556916	974.113715943227	1093.258625271769	744.738744740709	1035.882881786440	838.750936041435	741.029700023007	
37	34.798000000000	881.954785985345	993.606404739891	476.203425351914	1051.785160823358	1432.131376096112	301.609283815518	1147.657806441440	1367.484135443848	468.411295265448	1049.812165875604	1435.767494499438	637.093190995463	1023.037675449216	1492.240717832759	457.542297031656	1112.271187055813	944.600043684227	601.171517940747	1104.817710421774	962.029583983232	324.686154744479	1171.036238169171	749.048555343912	571.209704694472	1100.696016900288	633.811744855582	633.740099213893	1182.733767941141	587.890918247296	553.777146408429	1190.857477466513	499.835815281378	561.526991891625	1134.610373741415	736.091943139165	346.525161414452	1038.388072520089	626.922519274739	278.160513631420	1119.370277366366	538.386649721123	333.829087464022	1109.519092168236	456.661181270263	329.840276476306	1047.426326827784	397.606361214396	322.782400315643	913.358333416645	337.834338433401	274.022051655848	914.578101818655	208.503897445110	329.605879844184	1166.373519710714	409.212515814082	570.930808650826	1099.294371009288	303.797145587181	634.767433113494	1146.002720609795	209.698625090716	573.970563481758	1019.407067370486	42.279055312123	546.829301752145	1188.857925884551	99.058881443295	583.594481690219	1102.407676934965	37.398760667731	622.156875039032	1309.988229205745	48.564194326787	611.454427520886	736.993712669191	108.835647542392	367.817191900228	802.942024061645	76.288978623789	288.668487974967	901.727036413974	109.739329381809	310.296809976158	1003.811841457897	35.052974414220	284.713879911843	1080.322229136158	1090.044284258503	163.579487789458	1318.948465456084	989.919132240544	182.795474313337	981.723060175033	1093.326887398189	750.246051751310	1050.719527724397	840.702485862723	747.790485043717	
38	34.811000000000	882.739324883437	993.768202082450	480.001572731452	1050.655067190531	1432.311608130798	303.954762253999	1147.993446531918	1367.964731163716	470.047637644023	1051.503189894066	1436.277338970813	639.436385962293	1023.128693889876	1492.538452926200	460.031198946621	1113.752998425489	945.182098860056	603.529492766086	1105.140060779313	962.604110773551	327.080650370579	1170.928390397792	748.471390469966	574.189503768814	1099.031496186526	633.676309387790	635.923465340395	1180.963138696622	587.266898607682	556.132494715799	1188.182283269718	499.177668149645	563.331857494912	1139.700582692655	738.055713925563	349.117277695637	1047.576697076129	626.866460951095	279.708827168435	1131.053558867327	539.858210920571	335.291328669791	1122.052278487573	456.986866256670	330.315029447874	1057.962357039159	398.184007968714	323.221801224059	921.677938974087	343.190830948090	274.829047569295	919.105034500040	213.562763618156	329.465056358956	1163.219343665057	408.690606204367	572.371251049910	1095.651591062180	303.399605271607	635.674677863224	1141.698366294946	209.275543318600	574.510964615258	1014.253109637861	42.358554489943	546.828824266873	1183.806242229085	98.858781995807	583.775405477486	1097.209862808280	37.370287085079	622.259736452982	1304.900955834624	48.015637939737	611.714268404045	737.996567677413	122.284974789389	367.827951989691	801.922468555852	85.840341702737	288.730901777690	902.430337628897	113.684674680866	309.962356379781	999.143113497370	34.097922680889	284.850127210984	1075.636322722767	1088.920402131058	167.735500201298	1310.255453477900	977.881298703115	184.392916492081	989.529796848089	1093.497204709897	755.869813167816	1066.189666735539	843.101349648162	754.420237886299	
39	34.824000000000	883.269402875751	993.837900435647	483.714442889444	1049.390825066456	1432.308708119002	306.161440983612	1148.260311235756	1368.253677988264	471.496239581843	1053.273319930874	1436.668303577753	641.646103586645	1023.224871640403	1492.715685206000	462.387095194411	1115.050626778596	945.628338826865	605.739544283498	1104.982815331123	962.930761754162	329.379931666701	1170.678747890562	747.892569107259	576.965597404635	1097.382940775847	633.519787236883	638.037621794154	1179.122533442569	586.647154535264	558.365756177842	1185.446937438451	498.510347079951	565.102394885434	1144.654095531276	740.211087482067	351.544217327190	1056.810005106728	627.076753584457	281.067088076583	1142.732750326115	541.763501037390	336.637304645191	1134.743190850192	457.824873156333	330.859738096793	1068.863878478541	399.121715751969	323.699926006370	930.599143516416	348.822284116061	275.625890880549	924.267992216514	219.073976631166	329.518910370332	1160.026601839728	408.149044072452	573.771381140894	1091.992211724733	302.989167257862	636.606425442766	1137.343800566469	208.828716320904	575.036510030798	1009.016385255813	42.443647772558	546.834959856217	1178.703598593829	98.617210014417	583.944921406054	1091.945433165961	37.334550267254	622.358109393311	1299.760984880649	47.371903983556	611.952697033615	739.987366372658	136.434663546509	368.057428831705	801.704776290521	96.277986343545	288.942627077165	903.738518197312	118.280382771916	309.872201633615	994.799343617242	33.132446239030	284.999699974993	1070.827551915985	1087.620098872895	171.847082747776	1300.666852557893	965.436298681321	185.983180346416	997.522042649789	1093.758542173887	761.538770200692	1082.246858234303	845.991322820981	760.833793408208	
